<mxfile host="app.diagrams.net" agent="Mozilla/5.0 (Windows NT 10.0; Win64; x64) AppleWebKit/537.36 (KHTML, like Gecko) Chrome/132.0.0.0 Safari/537.36" version="26.0.10">
  <diagram name="페이지-1" id="W--izmiyOLYEOZezU3mL">
    <mxGraphModel dx="954" dy="2218" grid="1" gridSize="10" guides="1" tooltips="1" connect="1" arrows="1" fold="1" page="1" pageScale="1" pageWidth="827" pageHeight="1169" math="0" shadow="0">
      <root>
        <mxCell id="0" />
        <mxCell id="1" parent="0" />
        <mxCell id="JNcZku4EfP7hRc9nDtZE-1" value="이용자&lt;div&gt;&lt;br&gt;&lt;/div&gt;" style="shape=umlActor;verticalLabelPosition=bottom;verticalAlign=top;html=1;outlineConnect=0;" vertex="1" parent="1">
          <mxGeometry x="70" y="528" width="30" height="60" as="geometry" />
        </mxCell>
        <mxCell id="JNcZku4EfP7hRc9nDtZE-2" value="게시판 서비스&lt;div&gt;&lt;br&gt;&lt;/div&gt;" style="shape=umlFrame;whiteSpace=wrap;html=1;pointerEvents=0;width=90;height=30;" vertex="1" parent="1">
          <mxGeometry x="170" y="410" width="550" height="380" as="geometry" />
        </mxCell>
        <mxCell id="JNcZku4EfP7hRc9nDtZE-3" value="회원가입" style="rounded=1;whiteSpace=wrap;html=1;arcSize=40;fontColor=#000000;fillColor=#ffffc0;strokeColor=#ff0000;" vertex="1" parent="1">
          <mxGeometry x="200" y="510" width="100" height="30" as="geometry" />
        </mxCell>
        <mxCell id="JNcZku4EfP7hRc9nDtZE-5" value="회원 로그인" style="rounded=1;whiteSpace=wrap;html=1;arcSize=40;fontColor=#000000;fillColor=#ffffc0;strokeColor=#ff0000;" vertex="1" parent="1">
          <mxGeometry x="371" y="455" width="106" height="30" as="geometry" />
        </mxCell>
        <mxCell id="JNcZku4EfP7hRc9nDtZE-24" style="rounded=0;orthogonalLoop=1;jettySize=auto;html=1;" edge="1" parent="1" source="JNcZku4EfP7hRc9nDtZE-6" target="JNcZku4EfP7hRc9nDtZE-1">
          <mxGeometry relative="1" as="geometry" />
        </mxCell>
        <mxCell id="JNcZku4EfP7hRc9nDtZE-6" value="게시글 보기" style="rounded=1;whiteSpace=wrap;html=1;arcSize=40;fontColor=#000000;fillColor=#ffffc0;strokeColor=#ff0000;" vertex="1" parent="1">
          <mxGeometry x="200" y="660" width="100" height="30" as="geometry" />
        </mxCell>
        <mxCell id="JNcZku4EfP7hRc9nDtZE-23" style="rounded=0;orthogonalLoop=1;jettySize=auto;html=1;" edge="1" parent="1" source="JNcZku4EfP7hRc9nDtZE-7">
          <mxGeometry relative="1" as="geometry">
            <mxPoint x="90" y="558" as="targetPoint" />
          </mxGeometry>
        </mxCell>
        <mxCell id="JNcZku4EfP7hRc9nDtZE-7" value="게시판 보기" style="rounded=1;whiteSpace=wrap;html=1;arcSize=40;fontColor=#000000;fillColor=#ffffc0;strokeColor=#ff0000;" vertex="1" parent="1">
          <mxGeometry x="200" y="580" width="100" height="30" as="geometry" />
        </mxCell>
        <mxCell id="JNcZku4EfP7hRc9nDtZE-8" value="인증" style="rounded=1;whiteSpace=wrap;html=1;arcSize=40;fontColor=#000000;fillColor=#ffffc0;strokeColor=#ff0000;" vertex="1" parent="1">
          <mxGeometry x="580" y="430" width="90" height="30" as="geometry" />
        </mxCell>
        <mxCell id="JNcZku4EfP7hRc9nDtZE-9" value="로그인 실패" style="rounded=1;whiteSpace=wrap;html=1;arcSize=40;fontColor=#000000;fillColor=#ffffc0;strokeColor=#ff0000;" vertex="1" parent="1">
          <mxGeometry x="570" y="485" width="110" height="30" as="geometry" />
        </mxCell>
        <mxCell id="JNcZku4EfP7hRc9nDtZE-10" value="게시판 정렬" style="rounded=1;whiteSpace=wrap;html=1;arcSize=40;fontColor=#000000;fillColor=#ffffc0;strokeColor=#ff0000;" vertex="1" parent="1">
          <mxGeometry x="369" y="540" width="110" height="30" as="geometry" />
        </mxCell>
        <mxCell id="JNcZku4EfP7hRc9nDtZE-11" value="게시판&lt;span style=&quot;background-color: transparent; color: light-dark(rgb(0, 0, 0), rgb(237, 237, 237));&quot;&gt;&amp;nbsp;검색&lt;/span&gt;" style="rounded=1;whiteSpace=wrap;html=1;arcSize=40;fontColor=#000000;fillColor=#ffffc0;strokeColor=#ff0000;" vertex="1" parent="1">
          <mxGeometry x="371" y="600" width="110" height="30" as="geometry" />
        </mxCell>
        <mxCell id="JNcZku4EfP7hRc9nDtZE-12" value="게시글 쓰기, 수정, 삭제&lt;div&gt;&lt;br&gt;&lt;/div&gt;" style="rounded=1;whiteSpace=wrap;html=1;arcSize=40;fontColor=#000000;fillColor=#ffffc0;strokeColor=#ff0000;" vertex="1" parent="1">
          <mxGeometry x="358" y="660" width="140" height="40" as="geometry" />
        </mxCell>
        <mxCell id="JNcZku4EfP7hRc9nDtZE-13" value="댓글 보기, 쓰기,&lt;br&gt;수정, 삭제" style="rounded=1;whiteSpace=wrap;html=1;arcSize=40;fontColor=#000000;fillColor=#ffffc0;strokeColor=#ff0000;" vertex="1" parent="1">
          <mxGeometry x="362" y="730" width="132" height="40" as="geometry" />
        </mxCell>
        <mxCell id="JNcZku4EfP7hRc9nDtZE-20" style="edgeStyle=orthogonalEdgeStyle;rounded=0;orthogonalLoop=1;jettySize=auto;html=1;exitX=0.5;exitY=1;exitDx=0;exitDy=0;" edge="1" parent="1" source="JNcZku4EfP7hRc9nDtZE-9" target="JNcZku4EfP7hRc9nDtZE-9">
          <mxGeometry relative="1" as="geometry" />
        </mxCell>
        <mxCell id="JNcZku4EfP7hRc9nDtZE-22" style="rounded=0;orthogonalLoop=1;jettySize=auto;html=1;entryX=0.5;entryY=0.5;entryDx=0;entryDy=0;entryPerimeter=0;endArrow=none;startFill=0;" edge="1" parent="1" source="JNcZku4EfP7hRc9nDtZE-3" target="JNcZku4EfP7hRc9nDtZE-1">
          <mxGeometry relative="1" as="geometry" />
        </mxCell>
      </root>
    </mxGraphModel>
  </diagram>
</mxfile>
